<svg xmlns="http://www.w3.org/2000/svg" viewBox="0 0 273 342.1"><defs><style>.cls-1{fill:#6497b1;}.cls-2{fill:#b3cde0;}.cls-3{fill:#383b47;}</style></defs><title>body_inhalerAsset 9</title><g id="Layer_2" data-name="Layer 2"><g id="Layer_1-2" data-name="Layer 1"><path class="cls-1" d="M190.8,239.84l-45.68,37.74a2,2,0,0,1-3.26-1.06l-65.69-252L0,64.9,75.12,327.78a2.72,2.72,0,0,0,2.23,2l85,12.36a1.79,1.79,0,0,0,2-1.77s-1.81-50.12-1.36-56.68c.86-12.55,32.53-41.2,39.9-40.16C211.22,244.64,190.8,239.84,190.8,239.84Z"/><path class="cls-2" d="M126.17,0l-50,24.51L141.93,276.8a1.85,1.85,0,0,0,3,1l45.9-37.92Z"/><path class="cls-1" d="M211.54,300.23c-1.41-41.4-2.33-51.69-6.86-56.78,0,0-10.65-2.83-32.34,23.75-.61.74-6.63,7.61-7.19,8.42-1.15,1.69-2.37,5.75-2.86,8.22l1.63,57.71,47.62-41.32"/><path class="cls-2" d="M240.08,340.23l-67.82-7.54c-3.56-.48-2.94-.53-3-2l-.73-43.06s7.37-31,30.49-34.44l65.33,7.05"/><path class="cls-3" d="M236.53,290.94a.28.28,0,0,1,0-.09c.29-1.07,5.72-20.71,26.11-30.19,0,0,5.53-2.79,9.54,5.76a.72.72,0,0,1,.07.28l.74,44a.81.81,0,0,1-.05.27c-.59,1.36-6.26,13.25-32.11,29.08a.89.89,0,0,1-1.36-.54C238.82,332.43,235.71,297.84,236.53,290.94Z"/></g></g></svg>