<svg xmlns="http://www.w3.org/2000/svg" viewBox="0 0 429.94 616.77"><defs><style>.cls-1{fill:#8ab0f9}.cls-2{fill:#ee7163}.cls-3{fill:#527ae4}.cls-4{fill:#de8889}</style></defs><g id="Layer_2" data-name="Layer 2"><g id="Layer_1-2" data-name="Layer 1"><path class="cls-1" d="M25 171.31S41.74 70.73 6.74 13.73c0 0 19 10 45-10 0 0-4 28 15 61 0 0 14 10 28-13 0 0 8.88 18 32.88 18 0 0-12.88 20-13.88 34 0 0-35.61 47.85-34.61 54.85 0 0-44.13 1.73-54.13 12.73z"/><path class="cls-2" d="M179.16 175.19s-2.82-37.72 38.84-45.09c0 0 49-29.31 92.9-35.72 0 0-28.2-25.65-55.2-32.65l11.49-38.52s-16.49-3.48-19.49-7.48l-17 40a42 42 0 00-15-1l-3.22-49.19s-15 5.92-27 .92l-3.74 53.27s-72-19-105 98l93 33z"/><ellipse class="cls-3" cx="29.14" cy="8.28" rx="23.05" ry="6.65" transform="rotate(-12.9 29.166 8.27)"/><ellipse class="cls-3" cx="111.06" cy="60.92" rx="6.24" ry="18.85" transform="rotate(-60 111.058 60.921)"/><ellipse class="cls-4" cx="198.97" cy="5.91" rx="13.52" ry="3.54" transform="rotate(-1.56 199.009 6.015)"/><ellipse class="cls-4" cx="257.39" cy="19.6" rx="3.54" ry="10.48" transform="rotate(-69.82 257.378 19.604)"/><path class="cls-1" d="M339.7 126.6s-38 12.13 3 21.13l41 5s-15 30.88-8.37 45.84c0 0-46.85-29.57-83.74-.71l-16.89 8.87s-91-5-104.94-16c0 0 40.94-78.95 105.94-89.95 0 0 37.2-10.11 66.2-7.11.04-.05-10.2 15.93-2.2 32.93z"/><ellipse class="cls-3" cx="340.67" cy="110.11" rx="16.53" ry="6.24" transform="rotate(-85.84 340.674 110.111)"/><ellipse class="cls-3" cx="379.72" cy="175.74" rx="23.24" ry="6.24" transform="rotate(-79.21 379.716 175.737)"/><path d="M24.74 169.73c-61 92 10 238 10 238s83 145 163 193 137-27 137-27c113-123 94-244 94-244s-10-119.37-122-144.37c0 0-31 25.37-56 13.37-9.41-4.52-73-5-73-5l-86-33-5.1-1.08a87 87 0 00-61.9 10.08z" fill="#f4b6cc"/><path class="cls-2" d="M281.91 199s27.55 58 10.75 125.84c0 0-6 45-15.89 54s-38.11 15.6-38.11 15.6l-13.92-3s-.48-17.4-19.68-20.4l-4.51.73 8.14 1.35 4.58 2.55 4.41 4.92 2.2 5.26.68 5.26s-9 3.73-15.09 6.61a32.77 32.77 0 01-13.07 2.72 15.24 15.24 0 00-5.59 6.61l5.93-4.24s21.39-5.43 22.23-5.43 6.61-3.05 6.61-3.05 12.89 3.22 13.4 3.56-.34 4.24-.34 4.24-11.19 11-15.26 12.9-11.2 2-11.2 2-12-.34-20.7 3.9l-18.83 1s-7.8 1.53-11 5.43a13.5 13.5 0 00-3.06 8.31s.85 2.21 2.21.85 2-7.13 2-7.13l10.51-4.92 17.48.51-1.36 1.87-10.18 1.53-6.11 7.46 8-6.28 9-.34 12.54-8.22 11.71 1.36s0 8.48-4.08 13.91S194.1 449 194.1 449l-9.5 10.69 6.28-4.58s22.05-17.64 23.41-23.07 1.69-6.28 1.69-6.28l3.9-5.09 16.8-10.51 11.87-9.33 27.15-5.43-5.48 7.6-9.52 34.72-16.07 23-12.7 33.14-21 25-22.23 10.32-13.89 1s-18-14.68-20.21-18.65-.82 3.17-.82 3.17L173 533.6h14.28l-5.75 6.15-2.18 12.7L176 561l1.79 1 4.76-8.53 1.79-12.31 22.62-13.49-1.59 15.87 1.79 11.32-3.16 14.06h2.18l3.57-15.67-.39-12.3 4.36-15.68 9.73-9.33-3 14.89-4 11.11.79 14.48-2.24 14.09-4.07 12.7.39 5.95 2.38-8.33 2.38-6 3.38 10.51 5.31 2.38v-3l-3.56-1.72-3.37-9.32 3-10.92 13.29 18.85-2.58-6.15-5.83-8.53-3.49-9.53-1.81-3.4-.2-3 10.12 7.35 18.26 6.94-16.08-9.13 9.13-6.54 1.84-1.19-5 1.38-6.95 4-3.17-1-3.62-2.58-4.92-4.56 1.59-7.94 10.12-29.17L244.43 482l6.35-15.47 16.27-17.66 16.68-46.78 18.2-26 15.86 18 12 24.67v41.84l1.56-20 12.22 13.52v22.62l2.86-27.82-12-12.48L336 420.3l10.4 12.22v-5.2l-12-12.74-10.66-20.51 19.26 6.47 2.34-2.08-4.16-1-19.5-7-16.65-19s9.88-45.77 5.72-68.39-13-86.84-13-86.84L291.46 195z"/></g></g></svg>
