<svg xmlns="http://www.w3.org/2000/svg" viewBox="0 0 439.94 623.77"><defs><style>.cls-1,.cls-2,.cls-3,.cls-4,.cls-6,.cls-7{fill:none;stroke-linecap:round;stroke-linejoin:round;}.cls-1,.cls-7{stroke:#f4b6cc;}.cls-1,.cls-2,.cls-3,.cls-4{stroke-width:4px;}.cls-2,.cls-6{stroke:#527ae4;}.cls-3{stroke:#8ab0f9;}.cls-4{stroke:#ee7163;}.cls-5{fill:#ee7163;opacity:0.25;}.cls-6{stroke-width:6px;}.cls-7{stroke-width:10px;}</style></defs><title>2Asset 5</title><g id="Layer_2" data-name="Layer 2"><g id="Layer_1-2" data-name="Layer 1"><path class="cls-1" d="M84.13,160.42v.16"/><path class="cls-2" d="M132.62,71.73s-.28.44-.74,1.19"/><polyline class="cls-3" points="132.62 71.73 132.62 71.73 132.62 71.73"/><path class="cls-3" d="M129.19,77.52c1.12-2,2.07-3.59,2.69-4.6"/><line class="cls-1" x1="83.46" y1="160.34" x2="84.13" y2="160.58"/><line class="cls-4" x1="174.78" y1="192.67" x2="175.05" y2="192.21"/><polyline class="cls-3" points="175.06 192.21 184.16 177.19 184.16 177.19"/><path class="cls-2" d="M132.62,71.73h0"/><path class="cls-2" d="M132.62,71.73a2.22,2.22,0,0,1-.24.62,2.08,2.08,0,0,1-.5.57"/><path class="cls-3" d="M174.8,192.68h0l.25-.47"/><path class="cls-2" d="M380.37,200.57s-.39-.25-1.11-.66"/><path class="cls-2" d="M380.37,200.57a2.12,2.12,0,0,1-1.11-.66"/><path class="cls-1" d="M83.46,160.34l.67.08"/><path class="cls-2" d="M344.69,128.58c3.36-.06,6.56-7.1,7.21-16s-1.57-16.6-5-16.93"/><path class="cls-5" d="M286.91,201S314.46,259,297.66,326.84c0,0-6,45-15.89,54s-38.11,15.6-38.11,15.6l-13.92-3s-.48-17.4-19.68-20.4l-4.51.73,8.14,1.35,4.58,2.55,4.41,4.92,2.2,5.26.68,5.26s-9,3.73-15.09,6.61a32.77,32.77,0,0,1-13.07,2.72,15.24,15.24,0,0,0-5.59,6.61l5.93-4.24s21.39-5.43,22.23-5.43,6.61-3.05,6.61-3.05,12.89,3.22,13.4,3.56-.34,4.24-.34,4.24-11.19,11-15.26,12.9-11.2,2-11.2,2-12-.34-20.7,3.9l-18.83,1s-7.8,1.53-11,5.43a13.5,13.5,0,0,0-3.06,8.31s.85,2.21,2.21.85,2-7.13,2-7.13l10.51-4.92,17.48.51-1.36,1.87-10.18,1.53-6.11,7.46,8-6.28,9-.34L203.68,423l11.71,1.36s0,8.48-4.08,13.91S199.1,451,199.1,451l-9.5,10.69,6.28-4.58s22.05-17.64,23.41-23.07,1.69-6.28,1.69-6.28l3.9-5.09,16.8-10.51,11.87-9.33,27.15-5.43L275.22,405l-9.52,34.72-16.07,23-12.7,33.14-21,25-22.23,10.32-13.89,1s-18-14.68-20.21-18.65-.82,3.17-.82,3.17L178,535.6h14.28l-5.75,6.15-2.18,12.7L181,563l1.79,1,4.76-8.53,1.79-12.31,22.62-13.49-1.59,15.87,1.79,11.32L209,570.92h2.18l3.57-15.67-.39-12.3,4.36-15.68,9.73-9.33-3,14.89-4,11.11.79,14.48L220,572.51l-4.07,12.7.39,5.95,2.38-8.33,2.38-6,3.38,10.51,5.31,2.38v-3L226.21,585l-3.37-9.32,3-10.92,13.29,18.85-2.58-6.15-5.83-8.53-3.49-9.53L225.42,556l-.2-3,10.12,7.35,18.26,6.94-16.08-9.13,9.13-6.54,1.84-1.19-5,1.38-6.95,4-3.17-1-3.62-2.58-4.92-4.56,1.59-7.94,10.12-29.17L249.43,484l6.35-15.47,16.27-17.66,16.68-46.78,18.2-26,15.86,18,12,24.67V462.6l1.56-20,12.22,13.52v22.62l2.86-27.82-12-12.48L341,422.3l10.4,12.22v-5.2l-12-12.74-10.66-20.51L348,402.54l2.34-2.08-4.16-1-19.5-7-16.65-19s9.88-45.77,5.72-68.39-13-86.84-13-86.84L296.46,197Z"/><path class="cls-2" d="M132.62,71.73c.72-3.21-5-9.34-13.44-14.22-9-5.2-17.73-7-19.45-4a2.41,2.41,0,0,0-.24.63C85.57,76.59,71.74,66.73,71.74,66.73c-19-33-15-61-15-61l-.1.07a2.14,2.14,0,0,0,0-.67C55.78,1.55,45.06,1,32.65,3.8s-21.8,8-21,11.62a2.13,2.13,0,0,0,.11.33l0,0c32.2,52.43,20.59,141.73,18.52,155.71"/><path class="cls-4" d="M83.46,160.34l-1.72-.61c12.31-43.65,30.05-68.37,47.45-82.21,29.25-23.25,57.55-15.79,57.55-15.79l3.74-53.27h0a.71.71,0,0,1,0-.2c-.06-1.95,5.95-3.7,13.41-3.9s13.55,1.22,13.61,3.17l3.26,49.19a42,42,0,0,1,15,1l16.74-39.4a1.05,1.05,0,0,1,.08-.35c.67-1.83,5.62-1.7,11.05.3s9.29,5.1,8.62,6.93L260.74,63.73c25.94,6.72,53,30.65,55.05,32.52l-44.89,8.69a50.11,50.11,0,0,0-18.3,7.5L223,132.1h0c-41.7,7.36-38.88,45.09-38.88,45.09"/><path class="cls-6" d="M346.93,95.63h0c-10-1-21-.51-31.15.63a260.22,260.22,0,0,0-35.05,6.48C258.45,106.5,239,118.26,223,132.1c-17.47,15.14-30.73,32.77-38.88,45.09-5.13,7.76-8.24,13.41-9.11,15"/><path class="cls-6" d="M318.64,189.07c27.71-6.9,54.9,7.53,60.62,10.84l1.11.66c3.39.64,8.08-9.06,10.48-21.66s1.61-23.36-1.78-24a1.35,1.35,0,0,0-.4,0l.07-.16-41-5c-41-9-3-21.13-3-21.13"/><path class="cls-7" d="M84.13,160.42q3.77.45,7.51,1.23l5.1,1.08,78,29.94h0c13.94,11,104.94,16,104.94,16l17.45-9.29a58.19,58.19,0,0,1,21.45-10.37c105.52,28.25,115.1,142.66,115.1,142.66s19,121-94,244c0,0-57,75-137,27s-163-193-163-193-71-146-10-238h0l.52-.29c-.18,1.22-.29,1.87-.29,1.87,10-11,54.16-12.73,54.16-12.73h0"/><line class="cls-1" x1="174.8" y1="192.68" x2="174.78" y2="192.67"/></g></g></svg>