<svg xmlns="http://www.w3.org/2000/svg" viewBox="0 0 348.73 361.81"><defs><style>.cls-1{fill:#ee5d8b;}.cls-2{fill:#f179ba;}.cls-3{fill:#fa8f97;}</style></defs><title>1Asset 11</title><g id="Layer_2" data-name="Layer 2"><g id="Layer_1-2" data-name="Layer 1"><path class="cls-1" d="M222.38,39.67l3.2,19.21,11.74-16S223.45,37.54,222.38,39.67Z"/><polygon class="cls-1" points="261.86 88.75 260.8 61.01 249.06 77.02 261.86 88.75"/><polygon class="cls-1" points="291.74 94.09 291.74 117.56 309.88 121.83 291.74 94.09"/><polygon class="cls-1" points="293.1 145.19 309.88 121.83 320.69 149.79 293.1 145.19"/><polygon class="cls-1" points="295.86 171.87 320.69 149.79 317.01 173.25 295.86 171.87"/><polygon class="cls-1" points="269.19 164.51 293.1 145.19 295.86 171.87 269.19 164.51"/><polygon class="cls-1" points="317.01 173.25 305.52 200.84 331.27 185.21 317.01 173.25"/><polygon class="cls-1" points="225.58 58.88 249.06 77.02 215.84 81.27 225.58 58.88"/><polygon class="cls-1" points="213.54 47.7 225.58 58.88 222.38 39.67 213.54 47.7"/><polygon class="cls-1" points="205.72 67.93 215.84 81.27 203.42 86.79 205.72 67.93"/><polygon class="cls-1" points="219.51 109.78 242.51 103.34 215.84 81.27 219.51 109.78"/><polygon class="cls-1" points="273.32 110.7 242.51 103.34 261.86 88.75 273.32 110.7"/><polygon class="cls-1" points="268.73 136.92 291.74 117.56 273.32 110.7 268.73 136.92"/><polygon class="cls-1" points="261.86 88.75 291.74 94.09 273.32 110.7 261.86 88.75"/><polygon class="cls-1" points="244.81 124.96 246.19 150.71 268.73 136.92 244.81 124.96"/><polygon class="cls-1" points="232.39 175.09 269.19 164.51 246.19 150.71 232.39 175.09"/><polygon class="cls-1" points="219.51 109.78 220.9 135.54 244.81 124.96 219.51 109.78"/><polygon class="cls-1" points="198.82 122.66 219.51 109.78 199.74 102.88 198.82 122.66"/><polygon class="cls-1" points="199.74 142.9 209.4 160.37 220.9 135.54 199.74 142.9"/><polygon class="cls-1" points="212.16 185.21 232.39 175.09 209.4 160.37 212.16 185.21"/><polygon class="cls-1" points="191.92 199 212.16 185.21 190.54 169.57 191.92 199"/><polygon class="cls-1" points="262.29 199.92 255.39 237.63 290.34 231.66 262.29 199.92"/><polygon class="cls-1" points="319.31 218.32 290.34 231.66 305.52 200.84 319.31 218.32"/><polygon class="cls-1" points="339.55 230.28 317.47 247.75 333.57 261.09 339.55 230.28"/><polygon class="cls-1" points="306.9 273.05 290.34 231.66 275.62 267.53 306.9 273.05"/><polygon class="cls-1" points="238.37 296.96 282.98 310.3 275.62 267.53 238.37 296.96"/><polygon class="cls-1" points="228.71 256.03 255.39 237.63 219.97 230.28 228.71 256.03"/><polygon class="cls-1" points="204.34 268.45 238.37 296.96 208.48 292.82 204.34 268.45"/><polygon class="cls-1" points="212.62 198.54 219.97 230.28 194.68 220.62 212.62 198.54"/><polygon class="cls-1" points="226.41 321.34 212.62 316.28 208.48 292.82 226.41 321.34"/><polygon class="cls-1" points="320.69 313.98 306.9 273.05 282.98 310.3 320.69 313.98"/><polygon class="cls-1" points="347.83 296.5 332.19 339.73 320.69 313.98 347.83 296.5"/><polygon class="cls-1" points="338.17 359.97 325.29 361.81 332.19 339.73 338.17 359.97"/><polygon class="cls-1" points="266.88 330.54 281.6 352.15 244.35 346.63 266.88 330.54"/><polygon class="cls-1" points="308.74 341.57 282.98 310.3 266.88 330.54 308.74 341.57"/><polygon class="cls-2" points="225.58 58.88 260.8 61.01 236.34 42.3 225.58 58.88"/><polygon class="cls-2" points="215.84 81.27 225.58 58.88 205.72 67.93 215.84 81.27"/><polygon class="cls-2" points="242.51 103.34 261.86 88.75 249.06 77.02 242.51 103.34"/><polygon class="cls-2" points="291.74 117.56 273.32 110.7 291.74 94.09 291.74 117.56"/><polygon class="cls-2" points="244.81 124.96 246.19 150.71 220.9 135.54 244.81 124.96"/><polygon class="cls-2" points="219.51 109.78 220.9 135.54 198.82 122.66 219.51 109.78"/><polygon class="cls-2" points="261.86 88.75 280.73 78.61 291.74 94.09 261.86 88.75"/><polygon class="cls-2" points="293.1 145.19 268.73 136.92 291.74 117.56 293.1 145.19"/><polygon class="cls-2" points="320.69 149.79 331.27 185.21 317.01 173.25 320.69 149.79"/><polygon class="cls-2" points="269.19 164.51 262.29 199.92 232.39 175.09 269.19 164.51"/><polygon class="cls-2" points="212.62 198.54 231.13 211.66 219.97 230.28 212.62 198.54"/><polygon class="cls-2" points="190.54 169.57 209.4 160.37 212.16 185.21 190.54 169.57"/><polygon class="cls-2" points="319.31 218.32 339.55 230.28 317.47 247.75 319.31 218.32"/><polygon class="cls-2" points="333.57 261.09 347.83 296.5 346.75 271.32 333.57 261.09"/><polygon class="cls-2" points="306.9 273.05 282.98 310.3 275.62 267.53 306.9 273.05"/><polygon class="cls-2" points="262.29 199.92 290.34 231.66 305.52 200.84 262.29 199.92"/><polygon class="cls-2" points="228.71 256.03 275.62 267.53 255.39 237.63 228.71 256.03"/><polygon class="cls-2" points="219.97 230.28 204.34 268.45 198.28 240.82 219.97 230.28"/><polygon class="cls-2" points="238.37 296.96 226.41 321.34 208.48 292.82 238.37 296.96"/><polygon class="cls-2" points="244.35 346.63 226.41 321.34 266.88 330.54 244.35 346.63"/><polygon class="cls-2" points="212.62 316.28 221.04 336.49 226.41 321.34 212.62 316.28"/><polygon class="cls-2" points="281.6 352.15 308.74 341.57 303.31 358.2 281.6 352.15"/><polygon class="cls-2" points="331.94 342.41 325.29 361.81 308.74 341.57 332.19 339.73 331.94 342.41"/><polygon class="cls-2" points="348.73 326.94 332.19 339.73 345.76 348.99 348.73 326.94"/><polygon class="cls-2" points="306.9 273.05 333.57 261.09 320.69 313.98 306.9 273.05"/><polygon class="cls-2" points="228.71 256.03 238.37 296.96 204.34 268.45 228.71 256.03"/><polygon class="cls-2" points="317.47 247.75 306.9 273.05 290.34 231.66 317.47 247.75"/><polygon class="cls-2" points="231.13 211.66 262.29 199.92 255.39 237.63 231.13 211.66"/><polygon class="cls-2" points="295.86 171.87 305.52 200.84 317.01 173.25 295.86 171.87"/><polygon class="cls-3" points="260.8 61.01 249.06 77.02 225.58 58.88 260.8 61.01"/><polygon class="cls-3" points="261.86 88.75 280.73 78.61 260.8 61.01 261.86 88.75"/><polygon class="cls-3" points="225.58 58.88 205.72 67.93 213.54 47.7 225.58 58.88"/><polygon class="cls-3" points="215.84 81.27 219.51 109.78 199.74 102.88 203.42 86.79 215.84 81.27"/><polygon class="cls-3" points="249.06 77.02 242.51 103.34 215.84 81.27 249.06 77.02"/><polygon class="cls-3" points="244.81 124.96 242.51 103.34 219.51 109.78 244.81 124.96"/><polygon class="cls-2" points="273.32 110.7 244.81 124.96 242.51 103.34 273.32 110.7"/><polygon class="cls-3" points="269.02 137.13 273.37 110.64 244.48 125.01 269.02 137.13"/><polygon class="cls-3" points="269.19 164.51 293.1 145.19 268.73 136.92 269.19 164.51"/><polygon class="cls-3" points="309.88 121.83 293.1 145.19 291.74 117.56 309.88 121.83"/><polygon class="cls-3" points="295.86 171.87 320.69 149.79 293.1 145.19 295.86 171.87"/><polygon class="cls-3" points="305.52 200.84 295.86 171.87 269.19 164.51 262.29 199.92 305.52 200.84"/><polygon class="cls-3" points="331.27 185.21 319.31 218.32 305.52 200.84 331.27 185.21"/><polygon class="cls-1" points="339.55 230.28 319.31 218.32 331.27 185.21 339.55 230.28"/><polygon class="cls-3" points="319.31 218.32 317.47 247.75 290.34 231.66 319.31 218.32"/><polygon class="cls-3" points="262.29 199.92 231.13 211.66 232.39 175.09 262.29 199.92"/><polygon class="cls-3" points="269.19 164.51 246.19 150.71 268.73 136.92 269.19 164.51"/><polygon class="cls-3" points="246.19 150.71 232.39 175.09 209.4 160.37 246.19 150.71"/><polygon class="cls-2" points="212.62 198.54 212.16 185.21 232.39 175.09 231.13 211.66 212.62 198.54"/><polygon class="cls-3" points="219.97 230.28 255.39 237.63 231.13 211.66 219.97 230.28"/><polygon class="cls-3" points="275.62 267.53 290.34 231.66 255.39 237.63 275.62 267.53"/><polygon class="cls-3" points="339.55 230.28 346.75 271.32 333.57 261.09 339.55 230.28"/><polygon class="cls-3" points="347.83 296.5 320.69 313.98 333.57 261.09 347.83 296.5"/><polygon class="cls-3" points="332.19 339.73 348.73 326.94 347.83 296.5 332.19 339.73"/><polygon class="cls-3" points="338.17 359.97 345.76 348.99 332.19 339.73 338.17 359.97"/><polygon class="cls-3" points="325.29 361.81 303.31 358.2 308.74 341.57 325.29 361.81"/><polygon class="cls-3" points="332.19 339.73 320.69 313.98 308.74 341.57 332.19 339.73"/><polygon class="cls-3" points="266.88 330.54 281.6 352.15 308.74 341.57 266.88 330.54"/><polygon class="cls-3" points="238.37 296.96 226.41 321.34 266.88 330.54 238.37 296.96"/><polygon class="cls-3" points="244.35 346.63 221.04 336.49 226.41 321.34 244.35 346.63"/><polygon class="cls-3" points="219.97 230.28 228.71 256.03 204.34 268.45 219.97 230.28"/><polygon class="cls-3" points="191.92 199 194.68 220.62 212.62 198.54 212.16 185.21 191.92 199"/><polygon class="cls-3" points="199.74 142.9 209.4 160.37 190.54 169.57 199.74 142.9"/><polygon class="cls-3" points="246.19 150.71 209.4 160.37 220.9 135.54 246.19 150.71"/><polygon class="cls-3" points="198.82 122.66 199.74 142.9 220.9 135.54 198.82 122.66"/><polygon class="cls-3" points="275.62 267.53 238.37 296.96 228.71 256.03 275.62 267.53"/><polygon class="cls-3" points="320.69 313.98 308.74 341.57 282.98 310.3 320.69 313.98"/><polygon class="cls-3" points="194.68 220.62 219.97 230.28 198.28 240.82 194.68 220.62"/><polygon class="cls-2" points="282.98 310.3 266.88 330.54 238.37 296.96 282.98 310.3"/><polygon class="cls-2" points="193.48 141.14 199.43 135.84 199.74 142.9 198.29 147.35 193.48 141.14"/><polygon class="cls-2" points="198.82 122.66 187.27 133.53 184.67 129.73 196.28 119.91 198.82 122.66"/><polygon class="cls-2" points="179.66 124.32 181.87 127.12 194.08 117.71 191.28 115.31 179.66 124.32"/><polygon class="cls-2" points="174.46 118.51 176.46 121.11 188.88 111.5 184.87 107.09 174.46 118.51"/><polygon class="cls-2" points="172.45 111.5 165.24 105.29 182.87 105.69 172.45 111.5"/><polygon class="cls-2" points="164.64 94.48 183.67 94.68 183.47 90.07 164.44 90.07 164.64 94.48"/><polygon class="cls-2" points="183.07 71.64 183.27 77.65 165.04 77.65 164.84 71.64 183.07 71.64"/><polygon class="cls-2" points="164.84 64.03 183.07 64.03 183.07 57.42 164.84 57.83 164.84 64.03"/><polygon class="cls-2" points="183.27 44.61 183.47 38.6 164.64 38.6 164.84 45.01 183.27 44.61"/><polygon class="cls-2" points="183.07 25.98 183.07 31.99 164.84 31.79 164.84 25.98 183.07 25.98"/><polygon class="cls-2" points="182.87 6.15 183.07 12.76 164.84 12.96 164.84 5.95 182.87 6.15"/><polygon class="cls-1" points="164.84 5.95 164.84 0.75 183.67 1.15 182.87 6.15 164.84 5.95"/><polygon class="cls-1" points="164.84 25.98 183.07 25.98 182.87 18.57 164.44 18.77 164.84 25.98"/><polygon class="cls-1" points="164.84 57.83 183.07 57.42 183.07 51.75 164.98 51.57 164.84 57.83"/><polygon class="cls-1" points="183.25 84.3 164.71 84.03 165.04 77.65 183.27 77.65 183.25 84.3"/><polygon class="cls-1" points="183.52 99.77 182.87 105.69 165.24 105.29 164.8 99.67 183.52 99.77"/><polygon class="cls-1" points="181.87 127.12 184.67 129.73 196.28 119.91 194.08 117.71 181.87 127.12"/><polygon class="cls-1" points="182.87 105.69 184.87 107.09 174.46 118.51 172.45 111.5 182.87 105.69"/><polygon class="cls-1" points="199.16 128.61 199.43 135.79 193.48 141.14 199.16 128.61"/><polygon class="cls-3" points="187.27 133.53 193.48 141.14 199.16 128.61 198.82 122.66 187.27 133.53"/><polygon class="cls-3" points="176.46 121.11 179.66 124.32 191.28 115.31 188.88 111.5 176.46 121.11"/><polygon class="cls-3" points="164.64 94.48 164.8 99.67 183.52 99.77 183.67 94.68 164.64 94.48"/><polygon class="cls-3" points="164.71 84.03 164.44 90.07 183.47 90.07 183.25 84.3 164.71 84.03"/><rect class="cls-3" x="164.84" y="64.03" width="18.23" height="7.61"/><polygon class="cls-3" points="164.84 45.01 164.98 51.57 183.07 51.75 183.27 44.61 164.84 45.01"/><polygon class="cls-3" points="164.84 31.79 164.64 38.6 183.47 38.6 183.07 31.99 164.84 31.79"/><polygon class="cls-3" points="164.84 12.96 164.44 18.77 182.87 18.57 183.07 12.76 164.84 12.96"/><polygon class="cls-3" points="317.47 247.75 306.9 273.05 333.57 261.09 317.47 247.75"/><path class="cls-1" d="M126.34,38.92l-3.2,19.21-11.73-16S125.28,36.79,126.34,38.92Z"/><polygon class="cls-1" points="86.86 88.01 87.93 60.26 99.67 76.27 86.86 88.01"/><polygon class="cls-1" points="56.99 93.34 56.99 116.82 38.85 121.08 56.99 93.34"/><polygon class="cls-1" points="55.63 144.45 38.85 121.08 28.03 149.05 55.63 144.45"/><polygon class="cls-1" points="52.87 171.12 28.03 149.05 31.71 172.5 52.87 171.12"/><polygon class="cls-1" points="79.54 163.76 55.63 144.45 52.87 171.12 79.54 163.76"/><polygon class="cls-1" points="31.71 172.5 43.21 200.1 17.45 184.46 31.71 172.5"/><polygon class="cls-1" points="123.14 58.13 99.67 76.27 132.89 80.52 123.14 58.13"/><polygon class="cls-1" points="135.19 46.95 123.14 58.13 126.34 38.92 135.19 46.95"/><polygon class="cls-1" points="143.01 67.18 132.89 80.52 145.31 86.04 143.01 67.18"/><polygon class="cls-1" points="129.21 109.03 106.22 102.6 132.89 80.52 129.21 109.03"/><polygon class="cls-1" points="75.4 109.95 106.22 102.6 86.86 88.01 75.4 109.95"/><polygon class="cls-1" points="80 136.17 56.99 116.82 75.4 109.95 80 136.17"/><polygon class="cls-1" points="86.86 88.01 56.99 93.34 75.4 109.95 86.86 88.01"/><polygon class="cls-1" points="103.92 124.21 102.54 149.97 80 136.17 103.92 124.21"/><polygon class="cls-1" points="116.33 174.34 79.54 163.76 102.54 149.97 116.33 174.34"/><polygon class="cls-1" points="129.21 109.03 127.83 134.79 103.92 124.21 129.21 109.03"/><polygon class="cls-1" points="149.91 121.91 129.21 109.03 148.99 102.14 149.91 121.91"/><polygon class="cls-1" points="148.99 142.15 139.33 159.63 127.83 134.79 148.99 142.15"/><polygon class="cls-1" points="136.57 184.46 116.33 174.34 139.33 159.63 136.57 184.46"/><polygon class="cls-1" points="156.81 198.26 136.57 184.46 158.19 168.82 156.81 198.26"/><polygon class="cls-1" points="86.44 199.18 93.34 236.89 58.39 230.91 86.44 199.18"/><polygon class="cls-1" points="29.41 217.57 58.39 230.91 43.21 200.1 29.41 217.57"/><polygon class="cls-1" points="9.18 229.53 31.25 247.01 15.15 260.34 9.18 229.53"/><polygon class="cls-1" points="41.83 272.3 58.39 230.91 73.1 266.78 41.83 272.3"/><polygon class="cls-1" points="110.36 296.22 65.75 309.55 73.1 266.78 110.36 296.22"/><polygon class="cls-1" points="120.01 255.28 93.34 236.89 128.75 229.53 120.01 255.28"/><polygon class="cls-1" points="144.39 267.7 110.36 296.22 140.25 292.08 144.39 267.7"/><polygon class="cls-1" points="136.11 197.8 128.75 229.53 154.05 219.87 136.11 197.8"/><polygon class="cls-1" points="122.31 320.59 136.11 315.53 140.25 292.08 122.31 320.59"/><polygon class="cls-1" points="28.03 313.23 41.83 272.3 65.75 309.55 28.03 313.23"/><polygon class="cls-1" points="0.9 295.76 16.54 338.99 28.03 313.23 0.9 295.76"/><polygon class="cls-1" points="10.56 359.22 23.43 361.06 16.54 338.99 10.56 359.22"/><polygon class="cls-1" points="81.84 329.79 67.12 351.4 104.38 345.88 81.84 329.79"/><polygon class="cls-1" points="39.99 340.83 65.75 309.55 81.84 329.79 39.99 340.83"/><polygon class="cls-2" points="123.14 58.13 87.93 60.26 112.39 41.55 123.14 58.13"/><polygon class="cls-2" points="132.89 80.52 123.14 58.13 143.01 67.18 132.89 80.52"/><polygon class="cls-2" points="106.22 102.6 86.86 88.01 99.67 76.27 106.22 102.6"/><polygon class="cls-2" points="56.99 116.82 75.4 109.95 56.99 93.34 56.99 116.82"/><polygon class="cls-2" points="103.92 124.21 102.54 149.97 127.83 134.79 103.92 124.21"/><polygon class="cls-2" points="129.21 109.03 127.83 134.79 149.91 121.91 129.21 109.03"/><polygon class="cls-2" points="86.86 88.01 68 77.86 56.99 93.34 86.86 88.01"/><polygon class="cls-2" points="55.63 144.45 80 136.17 56.99 116.82 55.63 144.45"/><polygon class="cls-2" points="28.03 149.05 17.45 184.46 31.71 172.5 28.03 149.05"/><polygon class="cls-2" points="79.54 163.76 86.44 199.18 116.33 174.34 79.54 163.76"/><polygon class="cls-2" points="136.11 197.8 117.6 210.91 128.75 229.53 136.11 197.8"/><polygon class="cls-2" points="158.19 168.82 139.33 159.63 136.57 184.46 158.19 168.82"/><polygon class="cls-2" points="29.41 217.57 9.18 229.53 31.25 247.01 29.41 217.57"/><polygon class="cls-2" points="15.15 260.34 0.9 295.76 1.97 270.57 15.15 260.34"/><polygon class="cls-2" points="41.83 272.3 65.75 309.55 73.1 266.78 41.83 272.3"/><polygon class="cls-2" points="86.44 199.18 58.39 230.91 43.21 200.1 86.44 199.18"/><polygon class="cls-2" points="120.01 255.28 73.1 266.78 93.34 236.89 120.01 255.28"/><polygon class="cls-2" points="128.75 229.53 144.39 267.7 150.44 240.07 128.75 229.53"/><polygon class="cls-2" points="110.36 296.22 122.31 320.59 140.25 292.08 110.36 296.22"/><polygon class="cls-2" points="104.38 345.88 122.31 320.59 81.84 329.79 104.38 345.88"/><polygon class="cls-2" points="136.11 315.53 127.68 335.74 122.31 320.59 136.11 315.53"/><polygon class="cls-2" points="67.12 351.4 39.99 340.83 45.41 357.46 67.12 351.4"/><polygon class="cls-2" points="16.78 341.66 23.43 361.06 39.99 340.83 16.54 338.99 16.78 341.66"/><polygon class="cls-2" points="0 326.2 16.54 338.99 2.96 348.24 0 326.2"/><polygon class="cls-2" points="41.83 272.3 15.15 260.34 28.03 313.23 41.83 272.3"/><polygon class="cls-2" points="120.01 255.28 110.36 296.22 144.39 267.7 120.01 255.28"/><polygon class="cls-2" points="31.25 247.01 41.83 272.3 58.39 230.91 31.25 247.01"/><polygon class="cls-2" points="117.6 210.91 86.44 199.18 93.34 236.89 117.6 210.91"/><polygon class="cls-2" points="52.87 171.12 43.21 200.1 31.71 172.5 52.87 171.12"/><polygon class="cls-3" points="87.93 60.26 99.67 76.27 123.14 58.13 87.93 60.26"/><polygon class="cls-3" points="86.86 88.01 68 77.86 87.93 60.26 86.86 88.01"/><polygon class="cls-3" points="123.14 58.13 143.01 67.18 135.19 46.95 123.14 58.13"/><polygon class="cls-3" points="132.89 80.52 129.21 109.03 148.99 102.14 145.31 86.04 132.89 80.52"/><polygon class="cls-3" points="99.67 76.27 106.22 102.6 132.89 80.52 99.67 76.27"/><polygon class="cls-3" points="103.92 124.21 106.22 102.6 129.21 109.03 103.92 124.21"/><polygon class="cls-2" points="75.4 109.95 103.92 124.21 106.22 102.6 75.4 109.95"/><polygon class="cls-3" points="79.7 136.38 75.36 109.89 104.25 124.26 79.7 136.38"/><polygon class="cls-3" points="79.54 163.76 55.63 144.45 80 136.17 79.54 163.76"/><polygon class="cls-3" points="38.85 121.08 55.63 144.45 56.99 116.82 38.85 121.08"/><polygon class="cls-3" points="52.87 171.12 28.03 149.05 55.63 144.45 52.87 171.12"/><polygon class="cls-3" points="43.21 200.1 52.87 171.12 79.54 163.76 86.44 199.18 43.21 200.1"/><polygon class="cls-3" points="17.45 184.46 29.41 217.57 43.21 200.1 17.45 184.46"/><polygon class="cls-1" points="9.18 229.53 29.41 217.57 17.45 184.46 9.18 229.53"/><polygon class="cls-3" points="29.41 217.57 31.25 247.01 58.39 230.91 29.41 217.57"/><polygon class="cls-3" points="86.44 199.18 117.6 210.91 116.33 174.34 86.44 199.18"/><polygon class="cls-3" points="79.54 163.76 102.54 149.97 80 136.17 79.54 163.76"/><polygon class="cls-3" points="102.54 149.97 116.33 174.34 139.33 159.63 102.54 149.97"/><polygon class="cls-2" points="136.11 197.8 136.57 184.46 116.33 174.34 117.6 210.91 136.11 197.8"/><polygon class="cls-3" points="128.75 229.53 93.34 236.89 117.6 210.91 128.75 229.53"/><polygon class="cls-3" points="73.1 266.78 58.39 230.91 93.34 236.89 73.1 266.78"/><polygon class="cls-3" points="9.18 229.53 1.97 270.57 15.15 260.34 9.18 229.53"/><polygon class="cls-3" points="0.9 295.76 28.03 313.23 15.15 260.34 0.9 295.76"/><polygon class="cls-3" points="16.54 338.99 0 326.2 0.9 295.76 16.54 338.99"/><polygon class="cls-3" points="10.56 359.22 2.96 348.24 16.54 338.99 10.56 359.22"/><polygon class="cls-3" points="23.43 361.06 45.41 357.46 39.99 340.83 23.43 361.06"/><polygon class="cls-3" points="16.54 338.99 28.03 313.23 39.99 340.83 16.54 338.99"/><polygon class="cls-3" points="81.84 329.79 67.12 351.4 39.99 340.83 81.84 329.79"/><polygon class="cls-3" points="110.36 296.22 122.31 320.59 81.84 329.79 110.36 296.22"/><polygon class="cls-3" points="104.38 345.88 127.68 335.74 122.31 320.59 104.38 345.88"/><polygon class="cls-3" points="128.75 229.53 120.01 255.28 144.39 267.7 128.75 229.53"/><polygon class="cls-3" points="156.81 198.26 154.05 219.87 136.11 197.8 136.57 184.46 156.81 198.26"/><polygon class="cls-3" points="148.99 142.15 139.33 159.63 158.19 168.82 148.99 142.15"/><polygon class="cls-3" points="102.54 149.97 139.33 159.63 127.83 134.79 102.54 149.97"/><polygon class="cls-3" points="149.91 121.91 148.99 142.15 127.83 134.79 149.91 121.91"/><polygon class="cls-3" points="73.1 266.78 110.36 296.22 120.01 255.28 73.1 266.78"/><polygon class="cls-3" points="28.03 313.23 39.99 340.83 65.75 309.55 28.03 313.23"/><polygon class="cls-3" points="154.05 219.87 128.75 229.53 150.44 240.07 154.05 219.87"/><polygon class="cls-2" points="65.75 309.55 81.84 329.79 110.36 296.22 65.75 309.55"/><polygon class="cls-2" points="155.25 140.4 149.29 135.09 148.99 142.15 150.44 146.6 155.25 140.4"/><polygon class="cls-2" points="149.91 121.91 161.45 132.78 164.06 128.98 152.44 119.17 149.91 121.91"/><polygon class="cls-2" points="169.06 123.57 166.86 126.38 154.64 116.96 157.45 114.56 169.06 123.57"/><polygon class="cls-2" points="174.27 117.76 172.27 120.37 159.85 110.75 163.86 106.35 174.27 117.76"/><polygon class="cls-2" points="176.27 110.75 183.48 104.55 165.86 104.94 176.27 110.75"/><polygon class="cls-2" points="184.09 93.73 165.06 93.93 165.26 89.32 184.28 89.32 184.09 93.73"/><polygon class="cls-2" points="165.66 70.9 165.46 76.91 183.68 76.91 183.88 70.9 165.66 70.9"/><polygon class="cls-2" points="183.88 63.29 165.66 63.29 165.66 56.68 183.88 57.08 183.88 63.29"/><polygon class="cls-2" points="165.46 43.86 165.26 37.85 184.09 37.85 183.88 44.26 165.46 43.86"/><polygon class="cls-2" points="165.66 25.23 165.66 31.24 183.88 31.04 183.88 25.23 165.66 25.23"/><polygon class="cls-2" points="165.86 5.41 165.66 12.02 183.88 12.22 183.88 5.21 165.86 5.41"/><polygon class="cls-1" points="183.88 5.21 183.88 0 165.06 0.4 165.86 5.41 183.88 5.21"/><polygon class="cls-1" points="183.88 25.23 165.66 25.23 165.86 17.82 184.28 18.02 183.88 25.23"/><polygon class="cls-1" points="183.88 57.08 165.66 56.68 165.66 51 183.74 50.82 183.88 57.08"/><polygon class="cls-1" points="165.48 83.56 184.01 83.28 183.68 76.91 165.46 76.91 165.48 83.56"/><polygon class="cls-1" points="165.21 99.02 165.86 104.94 183.48 104.55 183.92 98.93 165.21 99.02"/><polygon class="cls-1" points="166.86 126.38 164.06 128.98 152.44 119.17 154.64 116.96 166.86 126.38"/><polygon class="cls-1" points="165.86 104.94 163.86 106.35 174.27 117.76 176.27 110.75 165.86 104.94"/><polygon class="cls-1" points="149.56 127.86 149.29 135.04 155.25 140.4 149.56 127.86"/><polygon class="cls-3" points="161.45 132.78 155.25 140.4 149.56 127.86 149.91 121.91 161.45 132.78"/><polygon class="cls-3" points="172.27 120.37 169.06 123.57 157.45 114.56 159.85 110.75 172.27 120.37"/><polygon class="cls-3" points="184.09 93.73 183.92 98.93 165.21 99.02 165.06 93.93 184.09 93.73"/><polygon class="cls-3" points="184.01 83.28 184.28 89.32 165.26 89.32 165.48 83.56 184.01 83.28"/><rect class="cls-3" x="165.66" y="63.29" width="18.23" height="7.61"/><polygon class="cls-3" points="183.88 44.26 183.74 50.82 165.66 51 165.46 43.86 183.88 44.26"/><polygon class="cls-3" points="183.88 31.04 184.09 37.85 165.26 37.85 165.66 31.24 183.88 31.04"/><polygon class="cls-3" points="183.88 12.22 184.28 18.02 165.86 17.82 165.66 12.02 183.88 12.22"/><polygon class="cls-3" points="31.25 247.01 41.83 272.3 15.15 260.34 31.25 247.01"/></g></g></svg>