<svg xmlns="http://www.w3.org/2000/svg" viewBox="0 0 348.73 361.81"><defs><style>.cls-1{fill:#ee5d8b;}</style></defs><title>animatieAsset 14</title><g id="Layer_2" data-name="Layer 2"><g id="Layer_1-2" data-name="Layer 1"><path class="cls-1" d="M347.83,296.5l-1.08-25.18-7.2-41-8.28-45.07-10.58-35.42-10.81-28L291.74,94.09l-11-15.48L260.8,61,237.23,43l.09-.12-.47-.18-.51-.39-.11.16c-3.29-1.2-13-4.56-13.85-2.79l-8.84,8-7.82,20.23-2.3,18.86-3.68,16.09-.92,19.78-2.53-2.75-2.21-2.2-2.8-2.4-2.4-3.81-4-4.41-2-1.4.07-.68.54-.47.44-5.61.16-5.2.21-4.41-.28-6-.33-6.37.2-6V57.08l-.14-6.26.14-6.56.2-6.41-.2-6.81V25.23l.41-7.21-.41-5.8V0L165.06.4l.05.35h-.27V13l-.4,5.81.4,7.21v5.81l-.2,6.81.2,6.41.14,6.56-.14,6.26V71.65l.2,6L164.71,84l-.27,6,.2,4.41.16,5.19.44,5.62.06,0-1.44,1-4,4.4-2.4,3.81-2.81,2.4-2.2,2.21-2.53,2.74L149,102.14,145.31,86,143,67.18,135.19,47l-8.85-8c-.88-1.77-10.56,1.6-13.84,2.8l-.11-.17-.51.4-.47.17.08.12-23.56,18L68,77.86,57,93.34,38.85,121.09,28,149.05,17.45,184.46,9.18,229.53,2,270.57.9,295.76,0,326.2l3,22,7.6,11,12.87,1.84,22-3.6,21.71-6.06,37.26-5.51,23.3-10.15,8.43-20.21,4.14-23.45,4.14-24.38,6.05-27.63,3.61-20.2,2.76-21.61,1.38-29.44-7.69-22.29,4.74-6.14-5.93-5.29v0l5.93,5.33,6.21-7.61,2.61-3.8,2.8-2.6,2.2-2.81,3.21-3.2,2-2.58.21.72,2,2.6,3.2,3.21,2.21,2.8,2.8,2.61,2.6,3.8,6.21,7.61,5.94-5.33v0l-5.94,5.29,4.75,6.13-7.69,22.3L191.92,199l2.76,21.62,3.6,20.2,6.06,27.63,4.14,24.37,4.14,23.46L221,336.49l23.31,10.14,37.25,5.52,21.71,6.05,22,3.61L338.17,360l7.59-11,3-22.05Z"/></g></g></svg>