<svg id="Laag_1" data-name="Laag 1" xmlns="http://www.w3.org/2000/svg" viewBox="0 0 841.89 595.28"><defs><style>.cls-1{fill:#fff;}.cls-2{isolation:isolate;}</style></defs><title>iconenArtboard 4</title><path class="cls-1" d="M268.47,267.5c3.2-83.48,59.21-119.49,104-125.84,59-8.36,113.57,20.5,135.93,82.27,21.51,0,42.17-2.29,62.15.45,53.63,7.34,95.22,57.57,95.5,112.56.3,56.35-40.1,106.12-94.1,115.47a169.62,169.62,0,0,1-28.27,2.47q-136.74.27-273.49.08a93.85,93.85,0,0,1-94.35-93.32c0-1.33,0-2.67.07-4,1.37-41.57,33.19-79,74-86.94C255.83,269.53,261.79,268.64,268.47,267.5Zm27.73,27.06c-6.73-1-11.25-1.7-15.79-2.33-40.16-5.63-77.68,23.07-81,61.92-3.59,42.38,27.53,77.25,70,77.38,93.7.26,187.41.47,281.12-.13,38.48-.25,66.89-19.29,83.25-53.73,16-33.62,12.24-66.92-10.71-96.2-23.47-30-54.92-42.4-92.83-33.94-12.64,2.82-24.72,8.15-37.07,12.33-19.7-69-55.73-101-107.34-96.48-25.17,2.19-46.92,11.37-64.5,29.25-27.77,28.24-33.4,62.86-25.13,101.93Z"/><path class="cls-1" d="M563.77,411.47h-12v-5h12Zm-24,0h-12v-5h12Zm-24,0h-12v-5h12Zm-24,0h-12v-5h12Zm-24,0h-12v-5h12Zm-24,0h-12v-5h12Zm-24,0h-12v-5h12Zm-24,0h-12v-5h12Zm-24,0h-12v-5h12Zm-24,0h-12v-5h12Zm-24,0h-12v-5h12Zm-24,0h-12v-5h12Zm-24,0h-4.52a61.15,61.15,0,0,1-7.93-1.1l1-4.91a59.58,59.58,0,0,0,7.17,1h4.31Zm300.73-.86-1.7-4.7A64.12,64.12,0,0,0,585.24,401l2.52,4.31A68.41,68.41,0,0,1,576.5,410.61ZM251.37,407a68.84,68.84,0,0,1-11.28-5.3l2.55-4.3a63.87,63.87,0,0,0,10.44,4.9Zm346.5-8.92-3.26-3.79a70.39,70.39,0,0,0,8.09-8.27l3.85,3.19A73.62,73.62,0,0,1,597.87,398.12Zm-367.8-3.92a47.82,47.82,0,0,1-7.91-9.82l4.28-2.59a43.34,43.34,0,0,0,7.08,8.8Zm383.62-15-4.28-2.58a89.74,89.74,0,0,0,5.35-10.38l4.59,2A93.51,93.51,0,0,1,613.69,379.16Zm-396.57-6.31A58.19,58.19,0,0,1,215,360.54l5-.34a53.3,53.3,0,0,0,1.95,11.24Zm406.44-16.24-4.8-1.4a59.55,59.55,0,0,0,1.6-6.52l.08-.44.22-.4A11,11,0,0,0,621.8,344l4.94.72a16.75,16.75,0,0,1-1.53,5.27C625,350.88,624.54,353.27,623.56,356.61ZM221,349.3l-4.74-1.59a35.85,35.85,0,0,1,6.26-11.18l3.89,3.14A30.88,30.88,0,0,0,221,349.3Zm400.73-16.66a80.88,80.88,0,0,0-2.21-11.43l4.83-1.29a86.69,86.69,0,0,1,2.35,12.14Zm-387.08-.72-3-4a70.67,70.67,0,0,1,10.64-6.39l2.2,4.48A65.3,65.3,0,0,0,234.61,331.92Zm20.65-10.37-1.62-4.73c3.66-1.26,7.61-2.4,11.73-3.4l1.18,4.86C262.57,319.24,258.78,320.34,255.26,321.55Zm22.86-5.61-.83-4.93c3.83-.64,7.87-1.19,12-1.65l.54,5C285.8,314.78,281.85,315.32,278.12,315.94Zm23.56-2.62-.31-5,4.1-.23c-.05-1.45-.09-3.49-.09-6q0-1.68,0-3.63l5,.08c0,1.27,0,2.46,0,3.55,0,5.13.19,8.23.19,8.26l.16,2.55-2.55.11C306,313.08,303.82,313.19,301.68,313.32Zm314.08-3.18a81.65,81.65,0,0,0-5.17-10.43l4.31-2.54a86.37,86.37,0,0,1,5.48,11.07Zm-11.84-19.87a54.44,54.44,0,0,0-8.26-7.93l3-4a58.74,58.74,0,0,1,9,8.65Zm-293-3.63-5-.34c.27-4.07.65-8.14,1.13-12.09l5,.6C311.55,278.67,311.18,282.66,310.91,286.64Zm175.31-1.91L482.84,276l4.66-1.8,1.62,4.19,2.59-.86,1.53,4.76c-3,1-4.68,1.6-4.7,1.61ZM504.64,279l-1.25-4.84c3.89-1,7.87-1.93,11.83-2.73l1,4.9C512.34,277.09,508.45,278,504.64,279Zm81.25-2.39A44.27,44.27,0,0,0,575,273.49l.74-4.94A49.14,49.14,0,0,1,587.87,272Zm-58-2.33-.73-4.95c4.06-.6,8.12-1.08,12.07-1.42l.44,5C535.84,273.2,531.87,273.66,527.91,274.25Zm35.41-1.88c-2.68-.14-5.4-.21-8.23-.21-1.2,0-2.39,0-3.58,0l-.11-5c1.24,0,2.48-.05,3.75,0,2.85,0,5.68.07,8.43.22Zm-84.34-8c-1.11-3.87-2.34-7.65-3.65-11.24l4.7-1.71c1.35,3.7,2.61,7.59,3.76,11.57Zm-165.21-1.31-4.92-.88c.73-4.09,1.59-8.1,2.55-11.91l4.85,1.22C315.32,255.2,314.48,259.09,313.77,263.07Zm157.09-20.83c-1.68-3.64-3.5-7.14-5.41-10.43l4.32-2.51c2,3.42,3.88,7.07,5.63,10.85Zm-151.29-2.06-4.73-1.61a120.78,120.78,0,0,1,4.49-11.4l4.55,2.07A116.46,116.46,0,0,0,319.57,240.18ZM459,222a92.42,92.42,0,0,0-7.54-8.89l3.59-3.48a94.9,94.9,0,0,1,8,9.39Zm-129.65-3.13-4.26-2.62a80.41,80.41,0,0,1,7.26-10l3.8,3.24A75.7,75.7,0,0,0,329.36,218.91ZM442.81,205.4a77.93,77.93,0,0,0-9.69-6.39l2.43-4.37a83.15,83.15,0,0,1,10.32,6.8Zm-98.41-3.93-3.14-3.89a60.88,60.88,0,0,1,10.46-6.81l2.28,4.46A55.56,55.56,0,0,0,344.4,201.47Zm78.18-7.31a82.18,82.18,0,0,0-11.17-3.27l1.07-4.88a87.44,87.44,0,0,1,11.85,3.46ZM364.91,192l-1.15-4.87c4-.94,8-1.69,12-2.23l.67,5A117.47,117.47,0,0,0,364.91,192Zm35-2.82a103.65,103.65,0,0,0-11.7-.3l-.15-5a109.29,109.29,0,0,1,12.28.32Z"/><g class="cls-2"><path class="cls-1" d="M374,313a1.14,1.14,0,0,1,.82-.33h13.78a1.14,1.14,0,0,1,1.16,1.16v65.56a1.09,1.09,0,0,1-.34.82,1.11,1.11,0,0,1-.82.34H375.43a1.4,1.4,0,0,1-1.36-.77l-22.31-37.05c-.13-.2-.26-.28-.38-.24s-.2.18-.2.43l.1,36.47a1.13,1.13,0,0,1-.34.82,1.12,1.12,0,0,1-.83.34H336.34a1.16,1.16,0,0,1-1.16-1.16V313.79a1.14,1.14,0,0,1,1.16-1.16h13.29a1.39,1.39,0,0,1,1.36.77l22.21,37c.12.19.25.28.38.24s.2-.17.2-.43l-.1-36.37A1.13,1.13,0,0,1,374,313Z"/><path class="cls-1" d="M410.87,378.43a22.65,22.65,0,0,1-9.26-8.88,26.09,26.09,0,0,1-3.3-13.28v-19.4a25.45,25.45,0,0,1,3.3-13,22.72,22.72,0,0,1,9.26-8.83,32,32,0,0,1,27.69,0,22.67,22.67,0,0,1,9.31,8.83,25.45,25.45,0,0,1,3.3,13v19.4a26.09,26.09,0,0,1-3.3,13.28,22.59,22.59,0,0,1-9.31,8.88,32,32,0,0,1-27.69,0Zm21.34-13.63a11.22,11.22,0,0,0,2.86-8.05V336.68a11.25,11.25,0,0,0-2.86-8,9.83,9.83,0,0,0-7.52-3.06,9.7,9.7,0,0,0-7.42,3.06,11.2,11.2,0,0,0-2.86,8v20.07a11.18,11.18,0,0,0,2.86,8.05,9.77,9.77,0,0,0,7.42,3A9.9,9.9,0,0,0,432.21,364.8Z"/><path class="cls-1" d="M480.26,366.55a.38.38,0,0,0,.39.19h24.73a1.16,1.16,0,0,1,1.16,1.16v11.45a1.09,1.09,0,0,1-.34.82,1.11,1.11,0,0,1-.82.34H459.89a1.16,1.16,0,0,1-1.16-1.16V368.58a2,2,0,0,1,.58-1.45q5.82-5.43,15.42-15.62l5.82-6.11q8.82-9.11,8.83-13.28a6,6,0,0,0-2.09-4.66,7.87,7.87,0,0,0-5.38-1.84,7.7,7.7,0,0,0-5.34,1.84,6.26,6.26,0,0,0-2,4.85v2.33a1.13,1.13,0,0,1-.34.82,1.12,1.12,0,0,1-.83.34h-14a1.12,1.12,0,0,1-.83-.34,1.13,1.13,0,0,1-.34-.82v-4.85a17,17,0,0,1,3.59-9.5,20.59,20.59,0,0,1,8.44-6.26,30.06,30.06,0,0,1,11.64-2.18,28,28,0,0,1,12.56,2.67,19.84,19.84,0,0,1,8.24,7.22,18.51,18.51,0,0,1,.92,18.14,40.39,40.39,0,0,1-5.82,8.63q-2.71,3.3-6.11,6.69t-9.4,9.12l-1.94,1.84A.31.31,0,0,0,480.26,366.55Z"/></g></svg>