<svg id="Laag_1" data-name="Laag 1" xmlns="http://www.w3.org/2000/svg" viewBox="0 0 841.89 595.28"><defs><style>.cls-1{fill:#fff;}.cls-2{isolation:isolate;}.cls-3{fill:#fcfcfc;}</style></defs><title>iconenArtboard 2</title><path class="cls-1" d="M268.32,270.87c3.2-83.48,59.21-119.49,104-125.84,59-8.36,113.57,20.5,135.93,82.27,21.51,0,42.17-2.29,62.15.45,53.63,7.34,95.22,57.57,95.5,112.56.3,56.35-40.1,106.12-94.1,115.47a169.53,169.53,0,0,1-28.27,2.47q-136.74.27-273.49.08A93.83,93.83,0,0,1,175.7,365c0-1.33,0-2.67.06-4,1.37-41.57,33.19-79,74-86.94C255.68,272.9,261.64,272,268.32,270.87Zm27.73,27.06c-6.73-1-11.25-1.7-15.79-2.33-40.16-5.63-77.68,23.07-81,61.92-3.59,42.38,27.53,77.25,70,77.38,93.7.26,187.41.47,281.12-.13,38.48-.25,66.89-19.29,83.25-53.73,16-33.62,12.24-66.92-10.71-96.2-23.47-30-54.92-42.4-92.83-33.94-12.64,2.82-24.72,8.15-37.07,12.33-19.7-69-55.73-101-107.34-96.48-25.17,2.19-46.92,11.37-64.5,29.25-27.77,28.24-33.4,62.86-25.13,101.93Z"/><g class="cls-2"><path class="cls-3" d="M371.38,330.13a15,15,0,0,1,6.09,5.91,17.49,17.49,0,0,1,2.14,8.76,16.7,16.7,0,0,1-2.22,8.65,14.73,14.73,0,0,1-6.28,5.79,20.78,20.78,0,0,1-9.4,2h-9.17a.33.33,0,0,0-.38.38v18.12a.88.88,0,0,1-.26.64.87.87,0,0,1-.64.27H340.58a.85.85,0,0,1-.64-.27.84.84,0,0,1-.26-.64V328.93a.86.86,0,0,1,.26-.64.88.88,0,0,1,.64-.26h21.73A19.06,19.06,0,0,1,371.38,330.13Zm-6.1,19.48a5.77,5.77,0,0,0,1.92-4.51,6,6,0,0,0-1.92-4.62,7.06,7.06,0,0,0-5-1.77h-7.74c-.26,0-.38.12-.38.37V351c0,.25.12.37.38.37h7.74A7.13,7.13,0,0,0,365.28,349.61Z"/><path class="cls-3" d="M419.7,328h10.6a.88.88,0,0,1,.64.26.87.87,0,0,1,.27.64v50.84a.92.92,0,0,1-.91.91H419.62a.87.87,0,0,1-.64-.27.88.88,0,0,1-.26-.64V349.54q0-.3-.15-.3c-.1,0-.2.07-.3.22l-6.47,10.38a1.07,1.07,0,0,1-1.05.6h-5.34a1.07,1.07,0,0,1-1.05-.6l-6.55-10.45c-.1-.15-.2-.23-.3-.23s-.15.1-.15.3v30.31a.88.88,0,0,1-.26.64.87.87,0,0,1-.64.27H385.78a.85.85,0,0,1-.64-.27.84.84,0,0,1-.26-.64V328.93a.86.86,0,0,1,.26-.64.88.88,0,0,1,.64-.26h10.6a1.2,1.2,0,0,1,1.06.6L407.89,345q.23.45.45,0l10.31-16.4A1.07,1.07,0,0,1,419.7,328Z"/><path class="cls-3" d="M446.55,328h11a.89.89,0,0,1,.9.9v50.84a.88.88,0,0,1-.26.64.87.87,0,0,1-.64.27H446.85a.85.85,0,0,1-.64-.27.84.84,0,0,1-.26-.64V340a.43.43,0,0,0-.15-.3c-.11-.1-.21-.13-.31-.08l-7.37,1.73-.3.08c-.45,0-.67-.28-.67-.83l-.15-7.9a1.06,1.06,0,0,1,.67-1.05l7.75-3.39A3.23,3.23,0,0,1,446.55,328Z"/><path class="cls-3" d="M469.41,376.73q-5-4.86-5-13.2V345.18q0-8.28,5-13T483,327.43q8.66,0,13.69,4.77t5,13v18.35q0,8.34-5,13.2T483,381.58Q474.38,381.58,469.41,376.73Zm18.16-7.67a6.74,6.74,0,0,0,1.7-4.86V344.73a6.74,6.74,0,0,0-1.7-4.86,6,6,0,0,0-4.55-1.76,5.8,5.8,0,0,0-4.43,1.76,6.81,6.81,0,0,0-1.66,4.86V364.2a6.93,6.93,0,0,0,1.62,4.86,5.78,5.78,0,0,0,4.47,1.76A6,6,0,0,0,487.57,369.06Z"/></g><path class="cls-1" d="M563.63,414.84h-12v-5h12Zm-24,0h-12v-5h12Zm-24,0h-12v-5h12Zm-24,0h-12v-5h12Zm-24,0h-12v-5h12Zm-24,0h-12v-5h12Zm-24,0h-12v-5h12Zm-24,0h-12v-5h12Zm-24,0h-12v-5h12Zm-24,0h-12v-5h12Zm-24,0h-12v-5h12Zm-24,0h-12v-5h12Zm-24,0h-4.52a61.15,61.15,0,0,1-7.93-1.1l1-4.91a59.6,59.6,0,0,0,7.18,1h4.31ZM576.36,414l-1.7-4.7a64.41,64.41,0,0,0,10.43-4.88l2.52,4.31A68.31,68.31,0,0,1,576.36,414Zm-325.13-3.57a68.45,68.45,0,0,1-11.28-5.3l2.55-4.3a63.1,63.1,0,0,0,10.44,4.9Zm346.5-8.92-3.26-3.79a69.54,69.54,0,0,0,8.08-8.27l3.85,3.19A74.29,74.29,0,0,1,597.73,401.49Zm-367.81-3.92a48.1,48.1,0,0,1-7.9-9.82l4.28-2.59a43,43,0,0,0,7.08,8.8Zm383.63-15-4.28-2.59a88.79,88.79,0,0,0,5.35-10.37l4.58,2A94.25,94.25,0,0,1,613.55,382.53ZM217,376.22a57.46,57.46,0,0,1-2.14-12.31l5-.34a52.56,52.56,0,0,0,2,11.24ZM623.42,360l-4.8-1.41a60.24,60.24,0,0,0,1.59-6.51l.08-.44.23-.4a11.07,11.07,0,0,0,1.13-3.89l5,.72a17.11,17.11,0,0,1-1.53,5.27C624.89,354.25,624.4,356.64,623.42,360Zm-402.61-7.31-4.74-1.59a36,36,0,0,1,6.26-11.18l3.89,3.14A30.88,30.88,0,0,0,220.81,352.67ZM621.54,336a81,81,0,0,0-2.21-11.44l4.84-1.28a87.81,87.81,0,0,1,2.34,12.14Zm-387.08-.72-3-4a70.67,70.67,0,0,1,10.64-6.39l2.2,4.49A64.47,64.47,0,0,0,234.46,335.29Zm20.65-10.37-1.62-4.73c3.66-1.26,7.61-2.4,11.74-3.4l1.17,4.86C262.42,322.61,258.63,323.71,255.11,324.92ZM278,319.31l-.82-4.93c3.82-.64,7.86-1.19,12-1.65l.54,5C285.65,318.15,281.7,318.69,278,319.31Zm23.56-2.62-.31-5,4.1-.23c0-1.45-.09-3.49-.09-6q0-1.68,0-3.63l5,.08c0,1.27,0,2.46,0,3.55,0,5.12.19,8.23.2,8.26l.15,2.55-2.55.11C305.85,316.44,303.67,316.56,301.53,316.69Zm314.08-3.18a82.28,82.28,0,0,0-5.16-10.43l4.31-2.54a87,87,0,0,1,5.48,11.07Zm-11.83-19.87a54,54,0,0,0-8.27-7.93l3-4a59.66,59.66,0,0,1,9,8.65Zm-293-3.63-5-.34c.28-4.07.66-8.14,1.13-12.09l5,.6C311.4,282,311,286,310.76,290Zm175.31-1.91-3.38-8.77,4.67-1.8,1.61,4.19,2.6-.86,1.52,4.76c-3,1-4.68,1.6-4.7,1.61Zm18.43-5.76-1.25-4.84c3.89-1,7.87-1.93,11.82-2.73l1,4.9C512.2,280.46,508.3,281.35,504.5,282.34ZM585.75,280a44.47,44.47,0,0,0-10.88-3.09l.74-4.95a49.59,49.59,0,0,1,12.11,3.45Zm-58-2.33-.73-4.95c4.06-.6,8.12-1.08,12.07-1.42l.44,5C535.69,276.57,531.73,277,527.76,277.62Zm35.41-1.88c-3.84-.2-7.87-.26-11.81-.17l-.11-5c4.06-.09,8.22,0,12.18.18Zm-84.33-8c-1.12-3.87-2.35-7.65-3.66-11.24l4.7-1.71c1.35,3.69,2.61,7.59,3.76,11.56Zm-165.22-1.31-4.92-.88c.74-4.09,1.59-8.1,2.55-11.91l4.85,1.22C315.17,258.57,314.34,262.46,313.62,266.44Zm157.09-20.83c-1.68-3.64-3.5-7.15-5.41-10.43l4.32-2.51c2,3.41,3.89,7.07,5.63,10.85Zm-151.29-2.07-4.73-1.6a120.79,120.79,0,0,1,4.5-11.4l4.55,2.07C322.18,236,320.73,239.71,319.42,243.54Zm139.44-18.13a91,91,0,0,0-7.54-8.89l3.59-3.48a95.93,95.93,0,0,1,8,9.38Zm-129.65-3.13L325,219.66a80.48,80.48,0,0,1,7.25-10l3.81,3.25A75.75,75.75,0,0,0,329.21,222.28Zm113.45-13.51a77.44,77.44,0,0,0-9.68-6.39L435.4,198a82,82,0,0,1,10.32,6.8Zm-98.41-3.93L341.11,201a60.88,60.88,0,0,1,10.46-6.81l2.28,4.46A55.56,55.56,0,0,0,344.25,204.84Zm78.18-7.31a80.64,80.64,0,0,0-11.16-3.27l1.06-4.89a87.47,87.47,0,0,1,11.85,3.47Zm-57.66-2.18-1.15-4.87c4-.94,8-1.69,12-2.23l.67,4.95A117.27,117.27,0,0,0,364.77,195.35Zm35-2.82a103.59,103.59,0,0,0-11.7-.3l-.15-5a109.22,109.22,0,0,1,12.28.32Z"/></svg>