<svg id="Laag_1" data-name="Laag 1" xmlns="http://www.w3.org/2000/svg" viewBox="0 0 841.89 595.28"><defs><style>.cls-1{fill:#fff;}.cls-2{isolation:isolate;}</style></defs><title>iconenArtboard 3</title><path class="cls-1" d="M268.32,270.87c3.2-83.48,59.21-119.49,104-125.84,59-8.36,113.57,20.5,135.93,82.27,21.51,0,42.17-2.29,62.15.45,53.63,7.34,95.22,57.57,95.5,112.56.3,56.35-40.1,106.12-94.1,115.47a169.53,169.53,0,0,1-28.27,2.47q-136.74.27-273.49.08A93.83,93.83,0,0,1,175.7,365c0-1.33,0-2.67.06-4,1.37-41.57,33.19-79,74-86.94C255.68,272.9,261.64,272,268.32,270.87Zm27.73,27.06c-6.73-1-11.25-1.7-15.79-2.33-40.16-5.63-77.68,23.07-81,61.92-3.59,42.38,27.53,77.25,70,77.38,93.7.26,187.41.47,281.12-.13,38.48-.25,66.89-19.29,83.25-53.73,16-33.62,12.24-66.92-10.71-96.2-23.47-30-54.92-42.4-92.83-33.94-12.64,2.82-24.72,8.15-37.07,12.33-19.7-69-55.73-101-107.34-96.48-25.17,2.19-46.92,11.37-64.5,29.25-27.77,28.24-33.4,62.86-25.13,101.93Z"/><g class="cls-2"><path class="cls-1" d="M363.89,323.14A14.86,14.86,0,0,1,370,329a17.56,17.56,0,0,1,2.15,8.77,16.66,16.66,0,0,1-2.22,8.64,14.82,14.82,0,0,1-6.28,5.8,20.81,20.81,0,0,1-9.4,2h-9.18a.32.32,0,0,0-.37.37v18.13a.87.87,0,0,1-.27.64.88.88,0,0,1-.64.26H333.09a.89.89,0,0,1-.9-.9V321.94a.9.9,0,0,1,.9-.91h21.74A19,19,0,0,1,363.89,323.14Zm-6.09,19.48a5.79,5.79,0,0,0,1.92-4.51,6,6,0,0,0-1.92-4.63,7.09,7.09,0,0,0-5-1.77h-7.75a.33.33,0,0,0-.37.38V344a.33.33,0,0,0,.37.38h7.75A7.21,7.21,0,0,0,357.8,342.62Z"/><path class="cls-1" d="M412.21,321h10.61a.9.9,0,0,1,.9.91v50.84a.89.89,0,0,1-.9.9H412.14a.88.88,0,0,1-.64-.26.86.86,0,0,1-.26-.64V342.54c0-.2-.06-.3-.15-.3s-.21.08-.31.23l-6.46,10.38a1.09,1.09,0,0,1-1.06.6h-5.34a1.07,1.07,0,0,1-1.05-.6l-6.54-10.46c-.1-.15-.2-.22-.3-.22s-.15.1-.15.3v30.31a.87.87,0,0,1-.27.64.88.88,0,0,1-.64.26H378.29a.89.89,0,0,1-.9-.9V321.94a.9.9,0,0,1,.9-.91H388.9a1.17,1.17,0,0,1,1.05.61L400.41,338q.22.45.45,0l10.3-16.39A1.07,1.07,0,0,1,412.21,321Z"/><path class="cls-1" d="M447.11,362.85a.3.3,0,0,0,.3.15h19.18a.89.89,0,0,1,.9.9v8.88a.89.89,0,0,1-.9.9H431.32a.9.9,0,0,1-.91-.9v-8.35a1.54,1.54,0,0,1,.45-1.13q4.51-4.21,12-12.11l4.52-4.74q6.84-7.06,6.84-10.3a4.61,4.61,0,0,0-1.62-3.61,6.08,6.08,0,0,0-4.17-1.43,5.94,5.94,0,0,0-4.14,1.43,4.84,4.84,0,0,0-1.58,3.76v1.81a.89.89,0,0,1-.9.9H430.94a.9.9,0,0,1-.64-.26.86.86,0,0,1-.26-.64v-3.76a13.17,13.17,0,0,1,2.78-7.37,15.92,15.92,0,0,1,6.54-4.86,23.43,23.43,0,0,1,9-1.69,21.69,21.69,0,0,1,9.74,2.07,15.45,15.45,0,0,1,6.39,5.6,14.37,14.37,0,0,1,.72,14.07,31.78,31.78,0,0,1-4.52,6.69,68.93,68.93,0,0,1-4.74,5.19q-2.62,2.64-7.29,7.07l-1.51,1.43A.24.24,0,0,0,447.11,362.85Z"/><path class="cls-1" d="M472.53,380.6l2.26-18.05a.81.81,0,0,1,.9-.83h9.25c.65,0,.9.33.75,1L481,380.82a1,1,0,0,1-1.05.76h-6.54C472.71,381.58,472.43,381.25,472.53,380.6Z"/><path class="cls-1" d="M529.24,356.61a19.49,19.49,0,0,1-1.36,7.22,15.89,15.89,0,0,1-6.5,7.48,19.52,19.52,0,0,1-10.49,2.82,19.74,19.74,0,0,1-10.46-2.74,15.91,15.91,0,0,1-6.54-7.49,21.17,21.17,0,0,1-1.2-4.51v-.15c0-.55.3-.83.9-.83h11a1.15,1.15,0,0,1,1.05.75,3.75,3.75,0,0,0,.53,1.21,4.77,4.77,0,0,0,4.59,3.08,5.27,5.27,0,0,0,2.85-.79,5.5,5.5,0,0,0,2-2.29,7.75,7.75,0,0,0,.82-3.76,8,8,0,0,0-.75-3.61,4.38,4.38,0,0,0-1.77-2.15,5.16,5.16,0,0,0-2.82-.79,6.61,6.61,0,0,0-3.23.83,4.3,4.3,0,0,0-2,2.11,1,1,0,0,1-1,.75H493.66a.89.89,0,0,1-.9-.9V321.94a.9.9,0,0,1,.9-.91h32.95a.9.9,0,0,1,.9.91v8.87a.9.9,0,0,1-.26.64.86.86,0,0,1-.64.26h-21a.33.33,0,0,0-.37.38v8.8a.3.3,0,0,0,.15.3.24.24,0,0,0,.3-.08,13.58,13.58,0,0,1,7-1.8,16.49,16.49,0,0,1,9.4,2.71,15.19,15.19,0,0,1,5.87,7.37A21.52,21.52,0,0,1,529.24,356.61Z"/></g><path class="cls-1" d="M563.63,414.84h-12v-5h12Zm-24,0h-12v-5h12Zm-24,0h-12v-5h12Zm-24,0h-12v-5h12Zm-24,0h-12v-5h12Zm-24,0h-12v-5h12Zm-24,0h-12v-5h12Zm-24,0h-12v-5h12Zm-24,0h-12v-5h12Zm-24,0h-12v-5h12Zm-24,0h-12v-5h12Zm-24,0h-12v-5h12Zm-24,0h-4.52a61.15,61.15,0,0,1-7.93-1.1l1-4.91a59.88,59.88,0,0,0,7.18,1h4.31ZM576.36,414l-1.7-4.7a64.41,64.41,0,0,0,10.43-4.88l2.52,4.31A68.31,68.31,0,0,1,576.36,414Zm-325.14-3.57a68.34,68.34,0,0,1-11.27-5.3l2.55-4.3a63.1,63.1,0,0,0,10.44,4.9Zm346.51-8.92-3.26-3.79a69.54,69.54,0,0,0,8.08-8.27l3.85,3.19A75.06,75.06,0,0,1,597.73,401.49Zm-367.81-3.92a48.1,48.1,0,0,1-7.9-9.82l4.28-2.59a43,43,0,0,0,7.08,8.8Zm383.63-15-4.28-2.59a88.79,88.79,0,0,0,5.35-10.37l4.58,2A95,95,0,0,1,613.55,382.53ZM217,376.22a57.46,57.46,0,0,1-2.14-12.31l5-.34a52.56,52.56,0,0,0,2,11.24ZM623.42,360l-4.8-1.4a66,66,0,0,0,1.6-6.52l.07-.44.23-.4a11.07,11.07,0,0,0,1.13-3.89l5,.72a17.11,17.11,0,0,1-1.53,5.27C624.89,354.25,624.4,356.64,623.42,360Zm-402.61-7.31-4.74-1.59a36,36,0,0,1,6.26-11.18l3.89,3.14A30.88,30.88,0,0,0,220.81,352.67ZM621.54,336a81,81,0,0,0-2.21-11.44l4.84-1.28a87.81,87.81,0,0,1,2.34,12.14Zm-387.08-.72-3-4a70.56,70.56,0,0,1,10.63-6.39l2.21,4.49A64.47,64.47,0,0,0,234.46,335.29Zm20.65-10.37-1.62-4.73c3.66-1.26,7.61-2.4,11.73-3.4l1.18,4.86C262.42,322.61,258.63,323.71,255.11,324.92ZM278,319.31l-.82-4.93c3.82-.64,7.86-1.19,12-1.65l.54,5C285.65,318.15,281.7,318.69,278,319.31Zm23.56-2.62-.31-5,4.11-.23c-.05-1.45-.1-3.49-.1-6q0-1.68,0-3.63l5,.08c0,1.27,0,2.46,0,3.55,0,5.12.19,8.23.2,8.26l.15,2.55-2.55.11C305.85,316.44,303.67,316.56,301.53,316.69Zm314.08-3.18a83.08,83.08,0,0,0-5.16-10.44l4.3-2.53a84.45,84.45,0,0,1,5.48,11.07Zm-11.84-19.87a53.53,53.53,0,0,0-8.26-7.93l3-4a59.66,59.66,0,0,1,9,8.65Zm-293-3.63-5-.34c.28-4.07.66-8.14,1.13-12.09l5,.6C311.4,282,311,286,310.76,290Zm175.31-1.91-3.38-8.78,4.67-1.79,1.61,4.19,2.59-.86,1.53,4.76c-3,1-4.68,1.6-4.7,1.61Zm18.43-5.76-1.25-4.84c3.89-1,7.87-1.93,11.82-2.73l1,4.9C512.2,280.46,508.3,281.36,504.5,282.34ZM585.75,280a44.47,44.47,0,0,0-10.88-3.09l.74-4.95a49.59,49.59,0,0,1,12.11,3.45Zm-58-2.33-.73-4.95c4.06-.6,8.12-1.08,12.07-1.42l.44,5C535.69,276.57,531.73,277,527.76,277.62Zm35.41-1.88c-3.84-.2-7.87-.26-11.81-.17l-.11-5c4.06-.09,8.22,0,12.18.18Zm-84.33-8c-1.12-3.87-2.35-7.65-3.66-11.24l4.7-1.71c1.35,3.69,2.62,7.58,3.76,11.56Zm-165.22-1.31-4.92-.89c.73-4.08,1.59-8.09,2.55-11.9l4.85,1.22C315.17,258.57,314.34,262.46,313.62,266.44Zm157.09-20.83c-1.68-3.64-3.5-7.15-5.41-10.43l4.32-2.52c2,3.42,3.89,7.07,5.63,10.86Zm-151.29-2.07-4.73-1.6c1.36-4,2.87-7.83,4.5-11.4l4.55,2.07C322.18,236,320.73,239.71,319.42,243.54Zm139.44-18.13a89.85,89.85,0,0,0-7.54-8.89l3.59-3.48a95.93,95.93,0,0,1,8,9.38Zm-129.65-3.13L325,219.66a80.48,80.48,0,0,1,7.25-10l3.81,3.25A75.75,75.75,0,0,0,329.21,222.28Zm113.45-13.52a77,77,0,0,0-9.68-6.38L435.4,198a80.62,80.62,0,0,1,10.32,6.8Zm-98.41-3.92L341.11,201a60.88,60.88,0,0,1,10.46-6.81l2.28,4.45A56.21,56.21,0,0,0,344.25,204.84Zm78.18-7.31a80.24,80.24,0,0,0-11.16-3.27l1.06-4.89a87.47,87.47,0,0,1,11.85,3.47Zm-57.66-2.18-1.15-4.87c4-.94,8-1.69,12-2.23l.67,4.95A117.27,117.27,0,0,0,364.77,195.35Zm35-2.82c-2.78-.23-5.69-.37-8.52-.35-1.07,0-2.13,0-3.18,0l-.15-5c1.11,0,2.19-.08,3.37,0,3,0,6,.12,8.91.37Z"/></svg>