<svg id="Laag_1" data-name="Laag 1" xmlns="http://www.w3.org/2000/svg" viewBox="0 0 841.89 595.28"><defs><style>.cls-1,.cls-2{fill:#fff;}.cls-2{stroke:#fff;stroke-miterlimit:10;stroke-width:1.8px;}</style></defs><title>iconenArtboard 1</title><polygon class="cls-1" points="299.83 275.71 299.5 307.19 413.14 271.13 413.14 238.35 299.83 275.71"/><polygon class="cls-1" points="526.31 275.71 526.63 307.19 413 271.13 413 238.35 526.31 275.71"/><polygon class="cls-1" points="365.76 212.02 365.88 245.32 414.08 229.79 414.08 196.2 365.76 212.02"/><polygon class="cls-1" points="460.8 211.78 460.8 245.57 414.04 229.55 414.04 196.2 460.8 211.78"/><polygon class="cls-1" points="299.5 317.87 299.5 338.25 314.4 332.55 314.57 314.3 299.5 317.87"/><path class="cls-1" d="M320.61,331.12l38-11.22V300.28l-38,11.79Z"/><polygon class="cls-1" points="366.06 296.52 366.06 317.25 412.67 302.28 462.45 318.49 462.45 295.95 413.25 280.13 366.06 296.52"/><polygon class="cls-1" points="473.12 299.68 473.12 320.03 511.52 331.55 511.52 310.05 473.12 299.68"/><polygon class="cls-1" points="519.71 334.24 526.63 337.31 526.63 315.03 519.33 313.12 519.71 334.24"/><polygon class="cls-1" points="299.5 344.46 299.5 366.49 326.02 359.33 326.02 336.4 299.5 344.46"/><polygon class="cls-1" points="331.4 356.75 331.4 335.21 374.11 324.64 374.11 345.77 331.4 356.75"/><polygon class="cls-1" points="380.03 322.71 380.03 344.22 410.06 336.15 409.68 315.43 380.03 322.71"/><polygon class="cls-1" points="452.21 324 452.07 344.99 494.31 358.03 494.31 337.33 452.21 324"/><polygon class="cls-1" points="500.51 338.93 500.51 359.2 526.63 369.13 526.63 347.68 500.51 338.93"/><polygon class="cls-1" points="299.5 375.17 299.5 400.01 320.79 392.68 320.79 368.78 299.5 375.17"/><polygon class="cls-1" points="328.28 366.89 328.28 389.36 368.23 376.59 368.23 355.54 328.28 366.89"/><polygon class="cls-1" points="374.11 374.7 374.11 354.24 411.06 344.43 411.06 366.89 374.11 374.7"/><polygon class="cls-1" points="453.5 374.23 453.5 353.42 414.06 344.43 414.06 366.89 453.5 374.23"/><polygon class="cls-1" points="462.02 356.75 503.18 370.33 503.18 390.72 461.18 376.74 462.02 356.75"/><polygon class="cls-1" points="510.92 373.08 510.92 392.86 526.63 398.38 526.63 377.53 510.92 373.08"/><path class="cls-2" d="M407.51,188.88h13.84s-17.73-12.11-6.93-23.34c0,0,12.63-3.88,23.78-6.48,0,0,6.47-3,.86-10.37,0,0-17.71-7.36-9.94-17.3,0,0,11.67-8.21,30.25-2.6s18.6,9,27.24,9c0,0,26.37,1.81,31.55-19.84,0,0,3.89-18.14,28.1-15.11s30.66,6.47,40.19,3c0,0,24.2-6.48,18.16-29.38,0,0-4.76-16.44-33.71-19a129.82,129.82,0,0,0-57.09,22.07S502.57,92.16,452,76.94a56.92,56.92,0,0,0-58.78,10.82A19.71,19.71,0,0,0,401,113.7s16.44,13.81-14.26,24.64c0,0-35,15.11-17.28,31.11A83.86,83.86,0,0,0,407.51,188.88Z"/><path class="cls-1" d="M526,412l-113.14-37.3h-.09L299.5,412l.68,31.16,113.14,37.3v0l.05,0,0,0v0L526,443.39l.39.12v-.25l.27-.09Z"/><polygon class="cls-1" points="415.44 315.43 415.06 336.15 446.09 344.22 446.09 322.71 415.44 315.43"/></svg>