<svg id="Capa_1" enable-background="new 0 0 512 512" height="512" viewBox="0 0 512 512" width="512" xmlns="http://www.w3.org/2000/svg"><g><path d="m511.993 512-107.962-125.427c11.155-4.492 21.192-11.656 29.173-21.068 14.277-16.839 20.396-38.988 16.786-60.768l-40.11-242c-6.026-36.353-37.143-62.737-73.99-62.737h-159.78c-36.849 0-67.966 26.384-73.99 62.736l-40.11 242c-3.61 21.78 2.508 43.929 16.785 60.768 7.981 9.413 18.019 16.577 29.174 21.069l-107.962 125.427zm-446.58-30 25.822-30h329.529l25.822 30zm303.707-90 25.822 30h-277.884l25.822-30zm-158.12-75c0-24.813 20.187-45 45-45s45 20.187 45 45-20.187 45-45 45-45-20.187-45-45zm107.199-257h-124.398l4.972-30h114.454zm-129.371 30h134.344l15.249 92h-164.841zm-20.221 122h174.786l4.972 30h-184.73zm211.677-144.358 40.11 242c2.166 13.068-1.506 26.358-10.072 36.461s-21.076 15.897-34.322 15.897h-60.041c9.438-12.544 15.041-28.129 15.041-45s-5.603-32.456-15.041-45h67.787l-39.997-241.316c18.549 3.243 33.357 17.788 36.535 36.958zm-278.607 278.46c-8.566-10.104-12.237-23.393-10.071-36.46l40.11-242c3.177-19.169 17.985-33.715 36.535-36.958l-39.997 241.316h67.787c-9.438 12.544-15.041 28.129-15.041 45s5.603 32.456 15.041 45h-60.041c-13.246 0-25.757-5.794-34.323-15.898z"/></g></svg>