<svg id="Layer_1" enable-background="new 0 0 512 512" height="512" viewBox="0 0 512 512" width="512" xmlns="http://www.w3.org/2000/svg"><path d="m494.454 351.374c-9.773-12.889-23.18-22.886-38.22-28.622-.15-2.807-.888-5.589-2.225-8.143-5.479-10.465-15.879-11.188-27.721-11.293-7.062-21.191-18.932-57.173-30.446-92.074-1.297-3.933-5.533-6.071-9.471-4.772-3.933 1.298-6.07 5.538-4.772 9.471 10.871 32.956 22.061 66.877 29.23 88.422-14.917 2.161-29.203 7.627-41.768 16.075 1.718-10.306 1.218-20.461-1.18-30.018-30.506-127.378-29.209-120.19-29.842-129.443 2.062.18.976.132 25.466.132 2.839 8.593 5.753 17.427 8.692 26.329 1.297 3.933 5.535 6.073 9.472 4.772 3.933-1.298 6.069-5.539 4.771-9.471-2.406-7.291-4.793-14.525-7.139-21.629h9.414c5.88 0 10.937-3.589 13.094-8.689h14.013c7.234 0 13.119-5.885 13.119-13.119v-25.128c0-7.228-5.885-13.109-13.119-13.109h-14.012c-2.156-5.106-7.214-8.699-13.096-8.699h-34.962l-18.923-42.78c-1.201-2.715-3.89-4.465-6.859-4.465h-19.211l3.912-13.391c1.161-3.976-1.12-8.14-5.095-9.301-3.983-1.162-8.141 1.12-9.302 5.096l-12.999 44.496c-1.161 3.976 1.12 8.14 5.095 9.301 3.982 1.161 8.142-1.124 9.302-5.096l4.705-16.106h18.71l14.35 32.443c-6.621.695-12.833 3.275-18.007 7.483h-29.996c-5.463 0-10.753 2.275-14.508 6.236l-19.308 20.338c-2.851 3.004-2.728 7.75.275 10.602 3.002 2.849 7.749 2.73 10.603-.276l19.312-20.342c.939-.992 2.262-1.56 3.627-1.56h19.312c-5.422 15.031.214 32.143 14.111 40.837.071 14.88.005 10.96 30.457 138.111 4.678 18.64-.068 38.301-12.502 52.741-2.075 2.414-5.072 3.799-8.222 3.799-37.97 0-41.674.859-51.298-2.978-3.845-1.536-8.21.34-9.744 4.188s.341 8.21 4.188 9.744c13.006 5.186 19.752 4.046 56.77 4.046-3.667 9.135-5.971 18.836-6.77 28.797h-105.63c3.901-5.446 5.836-11.49 5.836-18.28 0-24.729-11.366-46.975-32.006-62.638-24.375-18.499-57.082-25.013-87.192-21.311-4.111.505-7.034 4.247-6.529 8.358.506 4.111 4.252 7.034 8.359 6.529 48.96-6.016 102.369 19.75 102.369 69.487 0 9.452-9.145 17.807-21.101 17.856-171.337 0-160.572.021-161.608-.033-9.04-.549-14.401-9.469-12.755-14.629 9.187-28.924 22.03-34.594 31.846-45.28 9.93-8.874 21.354-15.818 33.965-20.642 3.869-1.48 5.805-5.815 4.325-9.684-1.479-3.868-5.812-5.806-9.684-4.325-14.456 5.53-27.55 13.522-38.919 23.753-.206.185-.4.381-.584.587-.781.877-2.031 2.053-3.505 3.409 10.092-22.69 22.005-41.542 36.075-57.12h160.497c12.642 54.629 12.463 58.573 19.84 69.684 2.29 3.45 6.944 4.39 10.395 2.1 3.451-2.291 4.39-6.945 2.099-10.396-5.489-8.268-4.744-8.69-18.877-69.761v-18.769c0-13.847-11.266-25.113-25.114-25.113h-115.525c-21.907 0-40.843 14.862-46.047 36.139-.615 2.513-.463 5.084.377 7.443-38.674 43.651-56.644 109.842-56.644 120.976 0 14.7 13.064 26.66 29.121 26.66h15.513c3.008 44.917 40.482 80.548 86.144 80.548 45.668 0 83.148-35.633 86.154-80.552 130.305 0 117.669.004 122.388.004 3.135 43.534 39.004 80.548 86.26 80.548 71.47 0 111.627-82.116 68.874-138.503zm-91.532-235.312h11.02v21.358h-11.02zm-69.507 28.473c-12.656-5.474-15.63-21.902-6.037-31.494 6.588-6.574 13.378-5.678 21.532-5.678h39.014v38.746c-50.829 0-49.56.566-54.509-1.574zm-231.101 88.571h115.525c5.578 0 10.115 4.538 10.115 10.115v12.138h-156.417c4.345-13.223 16.658-22.253 30.777-22.253zm59.503 176.223c-2.742 14.638-15.613 25.753-31.039 25.753-15.421 0-28.288-11.116-31.03-25.753zm-31.039 65.549c-37.388 0-68.131-28.91-71.106-65.55h24.907c2.876 22.942 22.49 40.752 46.199 40.752 23.713 0 43.331-17.81 46.208-40.752 20.997 0 4.462-.004 24.908-.004-2.974 36.641-33.722 65.554-71.116 65.554zm306.498-155.756c3.22.444 4.924 4.012 3.478 6.863l-26.087 51.482c-5.272 10.402-15.791 16.863-27.452 16.863-40.836 0-43.556-.004-46.444-.004 4.394-48.216 48.924-81.765 96.505-75.204zm-3.522 53.86c13.642 3.608 23.413 15.957 23.413 30.523 0 17.411-14.17 31.577-31.587 31.577-15.627 0-28.631-11.413-31.135-26.34 14.375-2.269 26.868-11.211 33.6-24.495zm-8.174 101.896c-38.779 0-68.14-30.138-71.229-65.55h25.03c2.876 22.942 22.49 40.752 46.199 40.752 25.687 0 46.585-20.894 46.585-46.576 0-20.391-12.991-37.838-31.527-44.109l11.268-22.237c26.809 10.679 45.047 37.108 45.047 66.346 0 39.356-32.017 71.374-71.373 71.374z"/></svg>